<svg width="1600" height="640" viewBox="0 0 1600 640" xmlns="http://www.w3.org/2000/svg">
  <defs>
    <linearGradient id="bp" x1="0" y1="0" x2="1" y2="1">
      <stop offset="0" stop-color="#3B9EFF"/>
      <stop offset="1" stop-color="#A855F7"/>
    </linearGradient>
    <radialGradient id="glow" cx="0.5" cy="0.5" r="0.5">
      <stop offset="0" stop-color="#3B9EFF" stop-opacity="0.20"/>
      <stop offset="1" stop-color="#3B9EFF" stop-opacity="0"/>
    </radialGradient>
    <radialGradient id="glow2" cx="0.5" cy="0.5" r="0.5">
      <stop offset="0" stop-color="#5AAD4E" stop-opacity="0.16"/>
      <stop offset="1" stop-color="#5AAD4E" stop-opacity="0"/>
    </radialGradient>
  </defs>

  <rect width="1600" height="640" rx="28" fill="#141416"/>
  <rect x="1" y="1" width="1598" height="638" rx="27" fill="none" stroke="#2A2A30" stroke-width="1.5"/>
  <ellipse cx="720" cy="360" rx="460" ry="280" fill="url(#glow)"/>
  <ellipse cx="1180" cy="430" rx="360" ry="240" fill="url(#glow2)"/>

  <text x="64" y="70" font-family="Geist Mono" font-size="16" fill="#5B5B66" letter-spacing="3">02 / 04</text>
  <text x="176" y="72" font-family="Instrument Sans" font-weight="700" font-size="36" fill="#F5F5F7">DAG Context</text>

  <g transform="translate(64,104)">
    <rect width="479" height="40" rx="10" fill="#182430" stroke="#2E4258" stroke-width="1.3"/>
    <rect x="0" y="8" width="8" height="24" rx="2" fill="#3B9EFF"/>
    <text x="24" y="26" font-family="Geist Mono" font-size="15" fill="#9CC7FF">One graph for every agent</text>
  </g>
  <g transform="translate(559,104)">
    <rect width="479" height="40" rx="10" fill="#17241C" stroke="#2E7D5B" stroke-width="1.3"/>
    <rect x="0" y="8" width="8" height="24" rx="2" fill="#5AAD4E"/>
    <text x="24" y="26" font-family="Geist Mono" font-size="15" fill="#7FE3B8">Spawn on its own lane</text>
  </g>
  <g transform="translate(1054,104)">
    <rect width="479" height="40" rx="10" fill="#17241C" stroke="#2E7D5B" stroke-width="1.3"/>
    <rect x="0" y="8" width="8" height="24" rx="2" fill="#5AAD4E"/>
    <text x="24" y="26" font-family="Geist Mono" font-size="15" fill="#7FE3B8">Attach the result back</text>
  </g>

  <!-- spawn/attach DAG, scaled and centered under chips -->
  <g transform="translate(444,172) scale(1.25)">
    <g font-family="Geist Mono" font-size="14" fill="#8A8A96">
      <g transform="translate(0,0)">
        <rect x="-6" y="-6" width="12" height="12" rx="1.5" transform="rotate(45)" fill="none" stroke="#7A8A9A" stroke-width="2"/>
        <text x="14" y="4">root</text>
      </g>
      <g transform="translate(90,0)">
        <circle r="6" fill="none" stroke="#7A8A9A" stroke-width="2"/>
        <text x="14" y="4">user</text>
      </g>
      <g transform="translate(180,0)">
        <polygon points="0,-7 6,5 -6,5" fill="none" stroke="#7A8A9A" stroke-width="2"/>
        <text x="14" y="4">llm</text>
      </g>
      <g transform="translate(258,0)">
        <rect x="-6" y="-6" width="12" height="12" fill="none" stroke="#7A8A9A" stroke-width="2"/>
        <text x="14" y="4">code</text>
      </g>
    </g>

    <line x1="20" y1="60" x2="20" y2="250" stroke="#4F8EF7" stroke-width="2.2"/>

    <g transform="translate(20,48)">
      <rect x="-8" y="-8" width="16" height="16" rx="2" transform="rotate(45)" fill="#4F8EF7" stroke="#4F8EF7" stroke-width="2.4"/>
      <text x="20" y="5" font-family="Geist Mono" font-size="15" fill="#C7D4E4">ROOT</text>
    </g>

    <line x1="20" y1="98" x2="44" y2="98" stroke="#4F8EF7" stroke-width="2.2"/>
    <g transform="translate(56,98)">
      <circle r="7" fill="#4F8EF7"/>
      <text x="16" y="5" font-family="Geist Mono" font-size="15" fill="#C7D4E4">user  "research X"</text>
    </g>
    <line x1="56" y1="108" x2="56" y2="140" stroke="#4F8EF7" stroke-width="2.2"/>
    <line x1="56" y1="140" x2="82" y2="140" stroke="#4F8EF7" stroke-width="2.2"/>
    <g transform="translate(94,140)">
      <polygon points="0,-8 7,6 -7,6" fill="#4F8EF7"/>
      <text x="18" y="5" font-family="Geist Mono" font-size="15" fill="#C7D4E4">llm  · spawns a sub-agent</text>
    </g>

    <line x1="20" y1="250" x2="44" y2="250" stroke="#4F8EF7" stroke-width="2.2"/>
    <g transform="translate(56,250)">
      <circle r="7" fill="#4F8EF7"/>
      <text x="16" y="5" font-family="Geist Mono" font-size="15" fill="#C7D4E4">user  sees B's result, continues</text>
    </g>
    <line x1="56" y1="260" x2="56" y2="292" stroke="#4F8EF7" stroke-width="2.2"/>
    <line x1="56" y1="292" x2="82" y2="292" stroke="#4F8EF7" stroke-width="2.2"/>
    <g transform="translate(94,292)">
      <polygon points="0,-8 7,6 -7,6" fill="#4F8EF7"/>
      <text x="18" y="5" font-family="Geist Mono" font-size="15" fill="#C7D4E4">llm</text>
    </g>

    <path d="M108 140 C 270 140, 290 165, 380 178" fill="none" stroke="#5AAD4E" stroke-width="2.2" stroke-dasharray="6 3 1 3"/>
    <text x="270" y="128" font-family="Geist Mono" font-size="16" fill="#6FC463">spawn_branch(task)</text>

    <line x1="380" y1="178" x2="380" y2="210" stroke="#5AAD4E" stroke-width="2.2"/>

    <g transform="translate(380,178)">
      <circle r="7" fill="none" stroke="#5AAD4E" stroke-width="2.6"/>
      <text x="16" y="5" font-family="Geist Mono" font-size="15" fill="#8ED07F">agent B</text>
    </g>
    <line x1="380" y1="210" x2="406" y2="210" stroke="#5AAD4E" stroke-width="2.2"/>
    <g transform="translate(418,210)">
      <polygon points="0,-8 7,6 -7,6" fill="none" stroke="#5AAD4E" stroke-width="2.6"/>
      <text x="18" y="5" font-family="Geist Mono" font-size="15" fill="#8ED07F">llm</text>
    </g>
    <line x1="418" y1="218" x2="418" y2="248" stroke="#5AAD4E" stroke-width="2.2"/>
    <line x1="418" y1="248" x2="444" y2="248" stroke="#5AAD4E" stroke-width="2.2"/>
    <g transform="translate(456,248)">
      <rect x="-7" y="-7" width="14" height="14" fill="none" stroke="#5AAD4E" stroke-width="2.6"/>
      <text x="18" y="5" font-family="Geist Mono" font-size="15" fill="#8ED07F">search_tool</text>
    </g>

    <path d="M456 258 C 420 320, 200 300, 76 262" fill="none" stroke="#5AAD4E" stroke-width="2.2" stroke-dasharray="7 6" opacity="0.85"/>
    <text x="240" y="330" font-family="Geist Mono" font-size="16" fill="#6FC463" text-anchor="middle">attach result &#8594;</text>
  </g>
</svg>
